<?xml version="1.0" encoding="utf-8"?>
<!-- Generator: Adobe Illustrator 22.0.0, SVG Export Plug-In . SVG Version: 6.00 Build 0)  -->
<svg version="1.1" id="Layer_1" xmlns="http://www.w3.org/2000/svg" xmlns:xlink="http://www.w3.org/1999/xlink" x="0px" y="0px"
	 viewBox="0 0 124.8 51.4" style="enable-background:new 0 0 124.8 51.4;" xml:space="preserve">
<style type="text/css">
	.st0{fill:none;}
</style>
<g>
	<path d="M13.1,26.7v1.8c0,1.3-0.7,2.1-2,2.1h-0.2v1.1h-0.4v-1.1h-0.2c-1.3,0-2-0.8-2-2.1v-1.8h0.4v1.8c0,1.1,0.6,1.7,1.6,1.7h0.2
		v-3.5h0.4v3.5H11c1.1,0,1.6-0.7,1.6-1.7v-1.8H13.1z"/>
	<path d="M14,30v-2.2h0.4V30c0,0.9,0.6,1.3,1.3,1.3c0.7,0,1.3-0.4,1.3-1.3v-2.2h0.4V30c0,1.2-0.7,1.7-1.6,1.7
		C14.7,31.7,14,31.2,14,30z"/>
	<path d="M21.1,32.9l-1.4-2.2l-1.4,2.2h-0.4l1.6-2.6l-1.6-2.4h0.4l1.4,2.1l1.4-2.1h0.4l-1.6,2.4l1.7,2.6H21.1z"/>
	<path d="M21.9,29.7c0-1.2,0.8-1.9,1.9-1.9c1.1,0,1.9,0.8,1.9,1.9c0,1.2-0.8,2-1.9,2C22.7,31.7,21.9,30.9,21.9,29.7z M25.3,29.7
		c0-0.9-0.6-1.6-1.5-1.6c-0.9,0-1.5,0.6-1.5,1.6c0,1,0.6,1.6,1.5,1.6C24.7,31.3,25.3,30.7,25.3,29.7z"/>
	<path d="M28.2,28.2H28l-1.4,3.4h-0.4l1.6-3.8h0.3L28,27.6c-0.3-0.8-0.5-1-1-1c-0.2,0-0.4,0-0.5,0.1v-0.4c0.1,0,0.3-0.1,0.5-0.1
		c0.5,0,0.9,0.1,1.3,1.1l1.5,4.2h-0.4L28.2,28.2z"/>
	<path d="M30.2,29.7c0-1.2,0.8-1.9,1.9-1.9c1.1,0,1.9,0.8,1.9,1.9c0,1.2-0.8,2-1.9,2C31,31.7,30.2,30.9,30.2,29.7z M33.7,29.7
		c0-0.9-0.6-1.6-1.5-1.6c-0.9,0-1.5,0.6-1.5,1.6c0,1,0.6,1.6,1.5,1.6C33,31.3,33.7,30.7,33.7,29.7z M32.7,26l0.5,0l-1,1.1h-0.3
		L32.7,26z"/>
	<path d="M38.1,27.9l-1.6,3.8v1.2h-0.4v-1.2l-1.6-3.8h0.4l1.4,3.3l1.4-3.3H38.1z"/>
	<path d="M38.5,29.7c0-1.2,0.8-1.9,1.9-1.9c1.1,0,1.9,0.8,1.9,1.9c0,1.2-0.8,2-1.9,2C39.3,31.7,38.5,30.9,38.5,29.7z M41.9,29.7
		c0-0.9-0.6-1.6-1.5-1.6c-0.9,0-1.5,0.6-1.5,1.6c0,1,0.6,1.6,1.5,1.6C41.3,31.3,41.9,30.7,41.9,29.7z"/>
	<path d="M44.9,32.6c0.5,0,1-0.2,1-0.7c0-0.4-0.4-0.4-1.1-0.6c-0.9-0.2-1.7-0.6-1.7-1.7c0-1.1,0.8-1.8,1.9-1.8
		c0.6,0,1.1,0.3,1.4,0.7l-0.3,0.3c-0.2-0.3-0.7-0.6-1.2-0.6c-0.9,0-1.5,0.6-1.5,1.5c0,0.8,0.5,1.2,1.4,1.3c0.9,0.2,1.4,0.3,1.4,0.9
		c0,0.7-0.6,1.1-1.3,1.1h0V32.6z"/>
	<path d="M48.8,26.7h3.1v0.4h-2.7v2h2.3v0.4h-2.3v1.8H52v0.4h-3.2V26.7z"/>
	<path d="M54.4,29.3l-1,1.1v1.2H53v-4.9h0.4v3.2l2.7-3.2h0.5l-2,2.3l2.1,2.6h-0.5L54.4,29.3z"/>
	<path d="M57.5,26.7h3.7v4.9h-0.4v-4.6h-2.9v4.6h-0.4V26.7z"/>
	<path d="M65.5,30.3h-2.6l-0.5,1.3H62l2.1-4.9h0.2l2.1,4.9H66L65.5,30.3z M63.1,30h2.3l-1.1-2.7L63.1,30z"/>
	<path d="M67.6,31.5c0,0.7-0.3,1.1-0.9,1.1v-0.2c0.4,0,0.6-0.3,0.6-0.7c-0.2,0-0.3-0.1-0.3-0.3c0-0.2,0.1-0.3,0.3-0.3
		C67.4,31,67.6,31.1,67.6,31.5z"/>
	<path d="M74.7,26.7v4.9h-0.4v-4l-1.8,3h-0.2l-1.8-3v4h-0.4v-4.9h0.2l2,3.5l2-3.5H74.7z"/>
	<path d="M75.7,31.3c0-0.2,0.1-0.3,0.3-0.3s0.3,0.1,0.3,0.3c0,0.2-0.1,0.3-0.3,0.3S75.7,31.5,75.7,31.3z"/>
	<path d="M77.1,31.3l0.1-0.4c0.5,0.3,1,0.4,1.7,0.4c0.8,0,1.2-0.3,1.2-1c0-0.7-0.6-0.8-1.4-1c-1-0.2-1.6-0.5-1.6-1.4
		c0-0.8,0.6-1.3,1.6-1.3c0.6,0,1.2,0.2,1.6,0.4l-0.2,0.4c-0.4-0.2-0.9-0.4-1.5-0.4c-0.8,0-1.2,0.4-1.2,0.9c0,0.6,0.5,0.8,1.4,1
		c0.9,0.2,1.6,0.4,1.6,1.4c0,0.9-0.6,1.4-1.6,1.4C78.1,31.7,77.7,31.6,77.1,31.3z"/>
	<path d="M81.3,29.8c0-1.2,0.8-1.9,1.9-1.9c0.6,0,1.1,0.3,1.4,0.7l-0.3,0.3c-0.2-0.3-0.7-0.6-1.1-0.6c-0.9,0-1.5,0.6-1.5,1.6
		c0,1,0.6,1.6,1.5,1.6c0.5,0,1-0.2,1.2-0.6l0.3,0.3c-0.3,0.4-0.9,0.7-1.5,0.7C82,31.7,81.3,30.9,81.3,29.8z"/>
	<path d="M85.3,31.3c0-0.2,0.1-0.3,0.3-0.3s0.3,0.1,0.3,0.3c0,0.2-0.1,0.3-0.3,0.3S85.3,31.5,85.3,31.3z"/>
	<path d="M13.2,35.9v1.8c0,1.3-0.7,2.1-2,2.1h-0.2v1.1h-0.4v-1.1h-0.2c-1.3,0-2-0.8-2-2.1v-1.8h0.4v1.8c0,1.1,0.6,1.7,1.6,1.7h0.2
		v-3.5h0.4v3.5h0.2c1.1,0,1.6-0.7,1.6-1.7v-1.8H13.2z"/>
	<path d="M14.1,39.2V37h0.4v2.2c0,0.9,0.6,1.3,1.3,1.3c0.7,0,1.3-0.4,1.3-1.3V37h0.4v2.2c0,1.2-0.7,1.7-1.6,1.7
		C14.8,40.9,14.1,40.4,14.1,39.2z"/>
	<path d="M21.3,42l-1.4-2.2L18.4,42H18l1.6-2.6L18.1,37h0.4l1.4,2.1l1.4-2.1h0.4L20,39.5l1.7,2.6H21.3z"/>
	<path d="M22.1,38.9c0-1.2,0.8-1.9,1.9-1.9c1.1,0,1.9,0.8,1.9,1.9c0,1.2-0.8,2-1.9,2C22.9,40.9,22.1,40.1,22.1,38.9z M25.5,38.9
		c0-0.9-0.6-1.6-1.5-1.6c-0.9,0-1.5,0.6-1.5,1.6c0,1,0.6,1.6,1.5,1.6C24.9,40.5,25.5,39.9,25.5,38.9z"/>
	<path d="M30.3,38.2c0,1.6-0.6,2.7-1.9,2.7c-1.3,0-1.9-1.1-1.9-2.7c0-1.7,0.6-2.7,1.9-2.7C29.7,35.5,30.3,36.5,30.3,38.2z M27,38
		l3,0c0-1.3-0.5-2.2-1.5-2.2C27.5,35.8,27,36.7,27,38z M29.9,38.4l-3,0c0,1.3,0.5,2.1,1.5,2.1C29.5,40.5,29.9,39.7,29.9,38.4z"/>
	<path d="M34.3,40.4c-0.5,0.3-1,0.5-1.7,0.5c-0.9,0-1.5-0.3-1.5-1.1c0-0.4,0.2-0.8,0.7-0.9c-0.4-0.1-0.6-0.5-0.6-0.8
		c0-0.8,0.7-1.1,1.4-1.1c0.7,0,1.2,0.2,1.6,0.4L34,37.7c-0.4-0.2-0.8-0.4-1.4-0.4c-0.5,0-1,0.2-1,0.7c0,0.3,0.3,0.7,0.8,0.7h0.9v0.3
		h-0.9c-0.6,0-0.9,0.3-0.9,0.7c0,0.6,0.5,0.7,1.2,0.7c0.6,0,1-0.1,1.5-0.4L34.3,40.4z"/>
	<path d="M34.9,38.9c0-1.2,0.7-1.9,1.8-1.9c1.1,0,1.8,0.8,1.8,1.9c0,1.2-0.7,2-1.8,2c-0.5,0-1-0.1-1.4-0.5V42h-0.4V38.9z M38.1,38.9
		c0-0.9-0.6-1.6-1.4-1.6c-0.9,0-1.4,0.6-1.4,1.6V40c0.3,0.4,0.8,0.5,1.3,0.5C37.5,40.5,38.1,39.9,38.1,38.9z"/>
	<path d="M39.2,38.9c0-1.2,0.7-1.9,1.8-1.9c0.5,0,1,0.1,1.3,0.5V37h0.4v3.8h-0.4v-0.4c-0.4,0.3-0.8,0.5-1.3,0.5
		C39.9,40.9,39.2,40.1,39.2,38.9z M42.3,40v-2.1c-0.3-0.3-0.8-0.5-1.3-0.5c-0.9,0-1.5,0.6-1.5,1.6c0,1,0.6,1.6,1.5,1.6
		C41.5,40.5,42,40.3,42.3,40z"/>
	<path d="M43.9,37H47v3.8h-0.4v-3.4h-2.4v3.4h-0.4V37z"/>
	<path d="M51.3,40.4c-0.5,0.3-1,0.5-1.7,0.5c-0.9,0-1.5-0.3-1.5-1.1c0-0.4,0.2-0.8,0.7-0.9c-0.4-0.1-0.6-0.5-0.6-0.8
		c0-0.8,0.7-1.1,1.4-1.1c0.7,0,1.2,0.2,1.6,0.4L51,37.7c-0.4-0.2-0.8-0.4-1.4-0.4c-0.5,0-1,0.2-1,0.7c0,0.3,0.3,0.7,0.8,0.7h0.9v0.3
		h-0.9c-0.6,0-0.9,0.3-0.9,0.7c0,0.6,0.5,0.7,1.2,0.7c0.6,0,1-0.1,1.5-0.4L51.3,40.4z"/>
	<path d="M51.9,39.2V37h0.4v2.2c0,0.9,0.6,1.3,1.3,1.3c0.7,0,1.3-0.4,1.3-1.3V37h0.4v2.2c0,1.2-0.7,1.7-1.6,1.7
		C52.6,40.9,51.9,40.4,51.9,39.2z M54.1,35.1l0.5,0l-1,1.1h-0.3L54.1,35.1z"/>
	<path d="M57.2,37.4h-1.4V37h3.1v0.3h-1.4v3.4h-0.4V37.4z"/>
	<path d="M59.5,38.9c0-1.2,0.7-1.9,1.8-1.9c1.1,0,1.8,0.8,1.8,1.9c0,1.2-0.7,2-1.8,2c-0.5,0-1-0.1-1.4-0.5V42h-0.4V38.9z M62.7,38.9
		c0-0.9-0.6-1.6-1.4-1.6c-0.9,0-1.4,0.6-1.4,1.6V40c0.3,0.4,0.8,0.5,1.3,0.5C62.2,40.5,62.7,39.9,62.7,38.9z"/>
	<path d="M64.1,37h0.4v3.8h-0.4V37z"/>
	<path d="M65.4,38.9c0-1.2,0.7-1.9,1.8-1.9c0.5,0,1,0.1,1.3,0.5V37h0.4v3.8h-0.4v-0.4c-0.4,0.3-0.8,0.5-1.3,0.5
		C66.1,40.9,65.4,40.1,65.4,38.9z M68.6,40v-2.1c-0.3-0.3-0.8-0.5-1.3-0.5c-0.9,0-1.5,0.6-1.5,1.6c0,1,0.6,1.6,1.5,1.6
		C67.8,40.5,68.3,40.3,68.6,40z"/>
</g>
<g>
	<path d="M14.3,13.3h-4.1l-0.8,2h-1L12,6.9h0.5l3.7,8.5h-1L14.3,13.3z M10.5,12.5H14l-1.7-4.1L10.5,12.5z"/>
	<path d="M16.9,12.1c0-2.1,1.1-3.4,3.1-3.4c2,0,3.1,1.3,3.1,3.3c0,2.2-1.2,3.4-3.1,3.4c-0.8,0-1.6-0.2-2.1-0.8v2.7h-0.9V12.1z
		 M22.1,12.1c0-1.4-0.8-2.4-2.2-2.4c-1.4,0-2.2,0.9-2.2,2.6v1.5c0.5,0.6,1.3,0.8,2,0.8C21.4,14.6,22.1,13.6,22.1,12.1z"/>
	<path d="M29.7,14.6c-0.8,0.6-1.5,0.8-2.9,0.8c-1.6,0-2.7-0.5-2.7-1.8c0-0.8,0.4-1.4,1.2-1.6c-0.6-0.3-1-0.8-1-1.4
		c0-1.5,1.1-1.9,2.4-1.9c1.2,0,2,0.3,2.8,0.8l-0.4,0.8c-0.7-0.3-1.4-0.6-2.4-0.6c-0.7,0-1.5,0.2-1.5,1.1c0,0.4,0.3,0.9,1.3,0.9H28
		v0.8h-1.5c-1,0-1.5,0.6-1.5,1c0,0.9,0.8,1.1,1.9,1.1c1,0,1.7-0.2,2.4-0.7L29.7,14.6z"/>
	<path d="M32.4,9.7h-2.2V8.9h5.3v0.8h-2.2v5.7h-0.9V9.7z"/>
	<path d="M36.6,8.9h0.9v0.6c0.6-0.4,1.5-0.7,2.4-0.7c1.5,0,2.2,0.6,2.2,2.8v5.9h-0.9v-5.9c0-1.6-0.6-1.9-1.6-1.9
		c-0.9,0-1.6,0.3-2.1,0.7v5h-0.9V8.9z M40.1,5.6l1.3,0.1l-2,1.9h-0.7L40.1,5.6z"/>
	<path d="M51.3,7.8h-2.7V6.9H55v0.9h-2.7v7.6h-1V7.8z"/>
	<path d="M62,9.7h-1.6c1,0.5,1.4,1.5,1.4,2.6c0,1.9-1.4,3.2-3.3,3.2c-2,0-3.3-1.4-3.3-3.4c0-2,1.3-3.2,3.3-3.2H62V9.7z M60.8,12.2
		c0-1.5-0.9-2.5-2.4-2.5c-1.4,0-2.4,0.9-2.4,2.4c0,1.5,0.9,2.5,2.4,2.5C59.9,14.6,60.8,13.7,60.8,12.2z"/>
	<path d="M62.7,12.1c0-2.1,1.2-3.3,3.1-3.3c0.8,0,1.5,0.2,2.1,0.7V8.9h0.9v6.5h-0.9v-0.6c-0.6,0.5-1.3,0.8-2.1,0.8
		C63.9,15.5,62.7,14.2,62.7,12.1z M67.9,13.8v-3.3c-0.5-0.5-1.3-0.8-2-0.8c-1.4,0-2.3,0.9-2.3,2.4c0,1.6,0.9,2.5,2.2,2.5
		C66.6,14.6,67.4,14.3,67.9,13.8z"/>
	<path d="M76,8.9l-2.9,6.6h-0.5l-2.9-6.6h1l2.1,5.1L75,8.9H76z"/>
	<path d="M76.4,12.1c0-2.1,1.2-3.3,3.1-3.3c0.8,0,1.5,0.2,2.1,0.7V8.9h0.9v6.5h-0.9v-0.6c-0.6,0.5-1.3,0.8-2.1,0.8
		C77.6,15.5,76.4,14.2,76.4,12.1z M81.6,13.8v-3.3c-0.5-0.5-1.3-0.8-2-0.8c-1.4,0-2.3,0.9-2.3,2.4c0,1.6,0.9,2.5,2.2,2.5
		C80.3,14.6,81.1,14.3,81.6,13.8z"/>
	<path d="M86.9,12.1L85.1,14v1.4h-0.9V8.9h0.9v3.9l3.7-3.9h1.2l-2.3,2.5l2.4,4h-1.1L86.9,12.1z"/>
	<path d="M92.6,9.7h-2.2V8.9h5.3v0.8h-2.2v5.7h-0.9V9.7z"/>
	<path d="M103.1,9.7h-1.6c1,0.5,1.4,1.5,1.4,2.6c0,1.9-1.4,3.2-3.3,3.2c-2,0-3.3-1.4-3.3-3.4c0-2,1.3-3.2,3.3-3.2h3.5V9.7z
		 M102,12.2c0-1.5-0.9-2.5-2.4-2.5c-1.4,0-2.4,0.9-2.4,2.4c0,1.5,0.9,2.5,2.4,2.5C101,14.6,102,13.7,102,12.2z"/>
	<path d="M105.6,5.6l1.3,0.1l-2,1.9h-0.7L105.6,5.6z M104.2,8.9h0.9v6.5h-0.9V8.9z"/>
	<path d="M113.1,12.3c0,1.8-1.3,3.2-3.3,3.2c-2,0-3.3-1.4-3.3-3.2c0-1.9,1.3-3.2,3-3.2c0.3,0,0.5,0,0.8,0.1c-1-0.9-2-1.6-3.1-2.4
		V6.3h5.3v0.8H109c0.7,0.5,2.4,1.9,2.8,2.3C112.5,10.1,113.1,11,113.1,12.3z M112.2,12.3c0-1.5-0.9-2.4-2.4-2.4
		c-1.4,0-2.3,1-2.3,2.4c0,1.3,0.9,2.3,2.3,2.3C111.2,14.6,112.2,13.6,112.2,12.3z"/>
	<path d="M114.4,8.9h0.9v0.6c0.6-0.4,1.5-0.7,2.4-0.7c1.5,0,2.2,0.6,2.2,2.8v5.9h-0.9v-5.9c0-1.6-0.6-1.9-1.6-1.9
		c-0.9,0-1.6,0.3-2.1,0.7v5h-0.9V8.9z"/>
</g>
<path class="st0" d="M8.6,9344.1"/>
<path class="st0" d="M8.6-7038.9"/>
</svg>
